<svg version="1.1"
  baseProfile="full"
  width="337.29" height="332.08"
  viewBox="87.71 -365.50 337.29 332.08"
  xmlns="http://www.w3.org/2000/svg"
  xmlns:xlink="http://www.w3.org/1999/xlink">

<style>
text {
    font-family: Helvetica, sans-serif;
    font-weight: 400;
}
text.ttfamily {
    font-family: "Courier New", Courier, monospace;
}
</style>
<defs>
</defs>

<!--   barNameAxis -->
<!-- Axis.getSvg() here.  22 ticks -->
<text id="text-1"  x="274.75" y="-75.86" font-size="26.60" dx="-65.60" dy="26.91" >differences</text>
<line x1="152.2" y1="-140.0" x2="152.2" y2="-133.0" stroke="black" stroke-width="0.99" />  <!-- tick at 100 -->
<text id="text-2"  x="158.08" y="-133.00" font-size="21.28" dx="-42.16" dy="5.64" transform="rotate(-90.00, 158.08, -133.00)" >100</text>
<line x1="163.9" y1="-140.0" x2="163.9" y2="-133.0" stroke="black" stroke-width="0.99" />
<line x1="175.6" y1="-140.0" x2="175.6" y2="-133.0" stroke="black" stroke-width="0.99" />
<line x1="187.2" y1="-140.0" x2="187.2" y2="-133.0" stroke="black" stroke-width="0.99" />
<line x1="198.9" y1="-140.0" x2="198.9" y2="-133.0" stroke="black" stroke-width="0.99" />  <!-- tick at 140 -->
<text id="text-3"  x="204.75" y="-133.00" font-size="21.28" dx="-42.16" dy="5.64" transform="rotate(-90.00, 204.75, -133.00)" >140</text>
<line x1="210.6" y1="-140.0" x2="210.6" y2="-133.0" stroke="black" stroke-width="0.99" />
<line x1="222.2" y1="-140.0" x2="222.2" y2="-133.0" stroke="black" stroke-width="0.99" />
<line x1="233.9" y1="-140.0" x2="233.9" y2="-133.0" stroke="black" stroke-width="0.99" />
<line x1="245.6" y1="-140.0" x2="245.6" y2="-133.0" stroke="black" stroke-width="0.99" />  <!-- tick at 180 -->
<text id="text-4"  x="251.42" y="-133.00" font-size="21.28" dx="-42.16" dy="5.64" transform="rotate(-90.00, 251.42, -133.00)" >180</text>
<line x1="257.2" y1="-140.0" x2="257.2" y2="-133.0" stroke="black" stroke-width="0.99" />
<line x1="268.9" y1="-140.0" x2="268.9" y2="-133.0" stroke="black" stroke-width="0.99" />
<line x1="280.6" y1="-140.0" x2="280.6" y2="-133.0" stroke="black" stroke-width="0.99" />
<line x1="292.2" y1="-140.0" x2="292.2" y2="-133.0" stroke="black" stroke-width="0.99" />  <!-- tick at 220 -->
<text id="text-5"  x="298.08" y="-133.00" font-size="21.28" dx="-43.53" dy="5.64" transform="rotate(-90.00, 298.08, -133.00)" >220</text>
<line x1="303.9" y1="-140.0" x2="303.9" y2="-133.0" stroke="black" stroke-width="0.99" />
<line x1="315.6" y1="-140.0" x2="315.6" y2="-133.0" stroke="black" stroke-width="0.99" />
<line x1="327.2" y1="-140.0" x2="327.2" y2="-133.0" stroke="black" stroke-width="0.99" />
<line x1="338.9" y1="-140.0" x2="338.9" y2="-133.0" stroke="black" stroke-width="0.99" />  <!-- tick at 260 -->
<text id="text-6"  x="344.75" y="-133.00" font-size="21.28" dx="-43.53" dy="5.64" transform="rotate(-90.00, 344.75, -133.00)" >260</text>
<line x1="350.6" y1="-140.0" x2="350.6" y2="-133.0" stroke="black" stroke-width="0.99" />
<line x1="362.2" y1="-140.0" x2="362.2" y2="-133.0" stroke="black" stroke-width="0.99" />
<line x1="373.9" y1="-140.0" x2="373.9" y2="-133.0" stroke="black" stroke-width="0.99" />
<line x1="385.6" y1="-140.0" x2="385.6" y2="-133.0" stroke="black" stroke-width="0.99" />  <!-- tick at 300 -->
<text id="text-7"  x="391.42" y="-133.00" font-size="21.28" dx="-43.69" dy="5.64" transform="rotate(-90.00, 391.42, -133.00)" >300</text>
<line x1="397.2" y1="-140.0" x2="397.2" y2="-133.0" stroke="black" stroke-width="0.99" />

<!--  barValAxis -->
<!-- Axis.getSvg() here.  4 ticks -->
<line x1="140.0" y1="-152.2" x2="133.0" y2="-152.2" stroke="black" stroke-width="0.99" />  <!-- tick at 0 -->
<text id="text-8"  x="133.00" y="-152.25" font-size="21.28" dx="-19.84" dy="5.64" >0</text>
<line x1="140.0" y1="-210.2" x2="133.0" y2="-210.2" stroke="black" stroke-width="0.99" />  <!-- tick at 10 -->
<text id="text-9"  x="133.00" y="-210.22" font-size="21.28" dx="-30.31" dy="5.64" >10</text>
<line x1="140.0" y1="-268.2" x2="133.0" y2="-268.2" stroke="black" stroke-width="0.99" />  <!-- tick at 20 -->
<text id="text-10"  x="133.00" y="-268.19" font-size="21.28" dx="-31.69" dy="5.64" >20</text>
<line x1="140.0" y1="-326.2" x2="133.0" y2="-326.2" stroke="black" stroke-width="0.99" />  <!-- tick at 30 -->
<text id="text-11"  x="133.00" y="-326.16" font-size="21.28" dx="-31.84" dy="5.64" >30</text>

<!--  frame lines -->
<line x1="140.0" y1="-140.0" x2="409.5" y2="-140.0" stroke="black" stroke-width="0.99" />
<line x1="140.0" y1="-350.0" x2="409.5" y2="-350.0" stroke="black" stroke-width="0.99" />
<line x1="140.0" y1="-140.0" x2="140.0" y2="-350.0" stroke="black" stroke-width="0.99" stroke-linecap="square" />
<line x1="409.5" y1="-140.0" x2="409.5" y2="-350.0" stroke="black" stroke-width="0.99" stroke-linecap="square" />

<!-- BarSet 0, fillColor black -->
<!-- val=0.0 -->
<!-- val=0.0 -->
<!-- val=0.0 -->
<!-- val=0.0 -->
<!-- val=0.0 -->
<!-- val=0.0 -->
<!-- val=0.0 -->
<!-- val=0.0 -->
<!-- val=0.0 -->
<!-- val=0.0 -->
<!-- val=0.0 -->
<!-- val=0.0 -->
<!-- val=0.0 -->
<!-- val=0.0 -->
<rect id="rect-12"  x="316.98" y="-169.64" width="4.43" height="17.39" stroke-width="1.0" stroke="black" fill="black" /> <!-- val=3.0 -->
<rect id="rect-13"  x="328.65" y="-192.83" width="4.43" height="40.58" stroke-width="1.0" stroke="black" fill="black" /> <!-- val=7.0 -->
<rect id="rect-14"  x="340.32" y="-262.39" width="4.43" height="110.14" stroke-width="1.0" stroke="black" fill="black" /> <!-- val=19.0 -->
<rect id="rect-15"  x="351.98" y="-331.95" width="4.43" height="179.70" stroke-width="1.0" stroke="black" fill="black" /> <!-- val=31.0 -->
<rect id="rect-16"  x="363.65" y="-308.77" width="4.43" height="156.52" stroke-width="1.0" stroke="black" fill="black" /> <!-- val=27.0 -->
<rect id="rect-17"  x="375.32" y="-216.02" width="4.43" height="63.77" stroke-width="1.0" stroke="black" fill="black" /> <!-- val=11.0 -->
<rect id="rect-18"  x="386.98" y="-163.84" width="4.43" height="11.59" stroke-width="1.0" stroke="black" fill="black" /> <!-- val=2.0 -->

<!-- BarSet 1, fillColor None -->
<!-- val=0.0 -->
<!-- val=0.0 -->
<!-- val=0.0 -->
<!-- val=0.0 -->
<rect id="rect-19"  x="204.75" y="-181.23" width="4.43" height="28.98" stroke-width="1.0" stroke="black" fill="none" /> <!-- val=5.0 -->
<rect id="rect-20"  x="216.42" y="-337.75" width="4.43" height="185.50" stroke-width="1.0" stroke="black" fill="none" /> <!-- val=32.0 -->
<rect id="rect-21"  x="228.08" y="-337.75" width="4.43" height="185.50" stroke-width="1.0" stroke="black" fill="none" /> <!-- val=32.0 -->
<rect id="rect-22"  x="239.75" y="-268.19" width="4.43" height="115.94" stroke-width="1.0" stroke="black" fill="none" /> <!-- val=20.0 -->
<rect id="rect-23"  x="251.42" y="-192.83" width="4.43" height="40.58" stroke-width="1.0" stroke="black" fill="none" /> <!-- val=7.0 -->
<rect id="rect-24"  x="263.08" y="-175.44" width="4.43" height="23.19" stroke-width="1.0" stroke="black" fill="none" /> <!-- val=4.0 -->
<!-- val=0.0 -->
<!-- val=0.0 -->
<!-- val=0.0 -->
<!-- val=0.0 -->
<!-- val=0.0 -->
<!-- val=0.0 -->
<!-- val=0.0 -->
<!-- val=0.0 -->
<!-- val=0.0 -->
<!-- val=0.0 -->
<!-- val=0.0 -->

</svg>
