<svg version="1.1"
  baseProfile="full"
  width="337.29" height="332.08"
  viewBox="87.71 -365.50 337.29 332.08"
  xmlns="http://www.w3.org/2000/svg"
  xmlns:xlink="http://www.w3.org/1999/xlink">

<style>
text {
    font-family: Helvetica, sans-serif;
    font-weight: 400;
}
text.ttfamily {
    font-family: "Courier New", Courier, monospace;
}
</style>
<defs>
</defs>

<!--   barNameAxis -->
<!-- Axis.getSvg() here.  22 ticks -->
<text id="text-1"  x="274.75" y="-75.86" font-size="26.60" dx="-65.60" dy="26.91" >differences</text>
<line x1="152.2" y1="-140.0" x2="152.2" y2="-133.0" stroke="black" stroke-width="0.99" />  <!-- tick at 100 -->
<text id="text-2"  x="158.08" y="-133.00" font-size="21.28" dx="-42.16" dy="5.64" transform="rotate(-90.00, 158.08, -133.00)" >100</text>
<line x1="163.9" y1="-140.0" x2="163.9" y2="-133.0" stroke="black" stroke-width="0.99" />
<line x1="175.6" y1="-140.0" x2="175.6" y2="-133.0" stroke="black" stroke-width="0.99" />
<line x1="187.2" y1="-140.0" x2="187.2" y2="-133.0" stroke="black" stroke-width="0.99" />
<line x1="198.9" y1="-140.0" x2="198.9" y2="-133.0" stroke="black" stroke-width="0.99" />  <!-- tick at 140 -->
<text id="text-3"  x="204.75" y="-133.00" font-size="21.28" dx="-42.16" dy="5.64" transform="rotate(-90.00, 204.75, -133.00)" >140</text>
<line x1="210.6" y1="-140.0" x2="210.6" y2="-133.0" stroke="black" stroke-width="0.99" />
<line x1="222.2" y1="-140.0" x2="222.2" y2="-133.0" stroke="black" stroke-width="0.99" />
<line x1="233.9" y1="-140.0" x2="233.9" y2="-133.0" stroke="black" stroke-width="0.99" />
<line x1="245.6" y1="-140.0" x2="245.6" y2="-133.0" stroke="black" stroke-width="0.99" />  <!-- tick at 180 -->
<text id="text-4"  x="251.42" y="-133.00" font-size="21.28" dx="-42.16" dy="5.64" transform="rotate(-90.00, 251.42, -133.00)" >180</text>
<line x1="257.2" y1="-140.0" x2="257.2" y2="-133.0" stroke="black" stroke-width="0.99" />
<line x1="268.9" y1="-140.0" x2="268.9" y2="-133.0" stroke="black" stroke-width="0.99" />
<line x1="280.6" y1="-140.0" x2="280.6" y2="-133.0" stroke="black" stroke-width="0.99" />
<line x1="292.2" y1="-140.0" x2="292.2" y2="-133.0" stroke="black" stroke-width="0.99" />  <!-- tick at 220 -->
<text id="text-5"  x="298.08" y="-133.00" font-size="21.28" dx="-43.53" dy="5.64" transform="rotate(-90.00, 298.08, -133.00)" >220</text>
<line x1="303.9" y1="-140.0" x2="303.9" y2="-133.0" stroke="black" stroke-width="0.99" />
<line x1="315.6" y1="-140.0" x2="315.6" y2="-133.0" stroke="black" stroke-width="0.99" />
<line x1="327.2" y1="-140.0" x2="327.2" y2="-133.0" stroke="black" stroke-width="0.99" />
<line x1="338.9" y1="-140.0" x2="338.9" y2="-133.0" stroke="black" stroke-width="0.99" />  <!-- tick at 260 -->
<text id="text-6"  x="344.75" y="-133.00" font-size="21.28" dx="-43.53" dy="5.64" transform="rotate(-90.00, 344.75, -133.00)" >260</text>
<line x1="350.6" y1="-140.0" x2="350.6" y2="-133.0" stroke="black" stroke-width="0.99" />
<line x1="362.2" y1="-140.0" x2="362.2" y2="-133.0" stroke="black" stroke-width="0.99" />
<line x1="373.9" y1="-140.0" x2="373.9" y2="-133.0" stroke="black" stroke-width="0.99" />
<line x1="385.6" y1="-140.0" x2="385.6" y2="-133.0" stroke="black" stroke-width="0.99" />  <!-- tick at 300 -->
<text id="text-7"  x="391.42" y="-133.00" font-size="21.28" dx="-43.69" dy="5.64" transform="rotate(-90.00, 391.42, -133.00)" >300</text>
<line x1="397.2" y1="-140.0" x2="397.2" y2="-133.0" stroke="black" stroke-width="0.99" />

<!--  barValAxis -->
<!-- Axis.getSvg() here.  5 ticks -->
<line x1="140.0" y1="-152.2" x2="133.0" y2="-152.2" stroke="black" stroke-width="0.99" />  <!-- tick at 0 -->
<text id="text-8"  x="133.00" y="-152.25" font-size="21.28" dx="-19.84" dy="5.64" >0</text>
<line x1="140.0" y1="-197.5" x2="133.0" y2="-197.5" stroke="black" stroke-width="0.99" />  <!-- tick at 10 -->
<text id="text-9"  x="133.00" y="-197.49" font-size="21.28" dx="-30.31" dy="5.64" >10</text>
<line x1="140.0" y1="-242.7" x2="133.0" y2="-242.7" stroke="black" stroke-width="0.99" />  <!-- tick at 20 -->
<text id="text-10"  x="133.00" y="-242.74" font-size="21.28" dx="-31.69" dy="5.64" >20</text>
<line x1="140.0" y1="-288.0" x2="133.0" y2="-288.0" stroke="black" stroke-width="0.99" />  <!-- tick at 30 -->
<text id="text-11"  x="133.00" y="-287.98" font-size="21.28" dx="-31.84" dy="5.64" >30</text>
<line x1="140.0" y1="-333.2" x2="133.0" y2="-333.2" stroke="black" stroke-width="0.99" />  <!-- tick at 40 -->
<text id="text-12"  x="133.00" y="-333.23" font-size="21.28" dx="-31.81" dy="5.64" >40</text>

<!--  frame lines -->
<line x1="140.0" y1="-140.0" x2="409.5" y2="-140.0" stroke="black" stroke-width="0.99" />
<line x1="140.0" y1="-350.0" x2="409.5" y2="-350.0" stroke="black" stroke-width="0.99" />
<line x1="140.0" y1="-140.0" x2="140.0" y2="-350.0" stroke="black" stroke-width="0.99" stroke-linecap="square" />
<line x1="409.5" y1="-140.0" x2="409.5" y2="-350.0" stroke="black" stroke-width="0.99" stroke-linecap="square" />

<!-- BarSet 0, fillColor black -->
<!-- val=0.0 -->
<!-- val=0.0 -->
<!-- val=0.0 -->
<!-- val=0.0 -->
<!-- val=0.0 -->
<!-- val=0.0 -->
<!-- val=0.0 -->
<!-- val=0.0 -->
<!-- val=0.0 -->
<!-- val=0.0 -->
<!-- val=0.0 -->
<!-- val=0.0 -->
<!-- val=0.0 -->
<!-- val=0.0 -->
<rect id="rect-13"  x="316.98" y="-156.77" width="4.43" height="4.52" stroke-width="1.0" stroke="black" fill="black" /> <!-- val=1.0 -->
<rect id="rect-14"  x="328.65" y="-170.35" width="4.43" height="18.10" stroke-width="1.0" stroke="black" fill="black" /> <!-- val=4.0 -->
<rect id="rect-15"  x="340.32" y="-197.49" width="4.43" height="45.24" stroke-width="1.0" stroke="black" fill="black" /> <!-- val=10.0 -->
<rect id="rect-16"  x="351.98" y="-319.65" width="4.43" height="167.40" stroke-width="1.0" stroke="black" fill="black" /> <!-- val=37.0 -->
<rect id="rect-17"  x="363.65" y="-260.84" width="4.43" height="108.59" stroke-width="1.0" stroke="black" fill="black" /> <!-- val=24.0 -->
<rect id="rect-18"  x="375.32" y="-233.69" width="4.43" height="81.44" stroke-width="1.0" stroke="black" fill="black" /> <!-- val=18.0 -->
<rect id="rect-19"  x="386.98" y="-174.87" width="4.43" height="22.62" stroke-width="1.0" stroke="black" fill="black" /> <!-- val=5.0 -->

<!-- BarSet 1, fillColor None -->
<!-- val=0.0 -->
<!-- val=0.0 -->
<!-- val=0.0 -->
<!-- val=0.0 -->
<rect id="rect-20"  x="204.75" y="-197.49" width="4.43" height="45.24" stroke-width="1.0" stroke="black" fill="none" /> <!-- val=10.0 -->
<rect id="rect-21"  x="216.42" y="-283.46" width="4.43" height="131.21" stroke-width="1.0" stroke="black" fill="none" /> <!-- val=29.0 -->
<rect id="rect-22"  x="228.08" y="-337.75" width="4.43" height="185.50" stroke-width="1.0" stroke="black" fill="none" /> <!-- val=41.0 -->
<rect id="rect-23"  x="239.75" y="-215.59" width="4.43" height="63.34" stroke-width="1.0" stroke="black" fill="none" /> <!-- val=14.0 -->
<rect id="rect-24"  x="251.42" y="-170.35" width="4.43" height="18.10" stroke-width="1.0" stroke="black" fill="none" /> <!-- val=4.0 -->
<rect id="rect-25"  x="263.08" y="-161.30" width="4.43" height="9.05" stroke-width="1.0" stroke="black" fill="none" /> <!-- val=2.0 -->
<!-- val=0.0 -->
<!-- val=0.0 -->
<!-- val=0.0 -->
<!-- val=0.0 -->
<!-- val=0.0 -->
<!-- val=0.0 -->
<!-- val=0.0 -->
<!-- val=0.0 -->
<!-- val=0.0 -->
<!-- val=0.0 -->
<!-- val=0.0 -->

</svg>
